<mxfile host="app.diagrams.net" agent="Mozilla/5.0 (Windows NT 10.0; Win64; x64) AppleWebKit/537.36 (KHTML, like Gecko) Chrome/130.0.0.0 Safari/537.36" version="24.8.2">
  <diagram id="W-oI5OCxC1dF8j54xQz4" name="Página-1">
    <mxGraphModel dx="1306" dy="585" grid="1" gridSize="10" guides="1" tooltips="1" connect="1" arrows="1" fold="1" page="1" pageScale="1" pageWidth="827" pageHeight="1169" math="0" shadow="0">
      <root>
        <mxCell id="0" />
        <mxCell id="1" parent="0" />
        <mxCell id="hu_uZ-Jb9RQQ4rkObMAk-5" style="edgeStyle=orthogonalEdgeStyle;rounded=0;orthogonalLoop=1;jettySize=auto;html=1;" edge="1" parent="1" source="hu_uZ-Jb9RQQ4rkObMAk-1">
          <mxGeometry relative="1" as="geometry">
            <mxPoint x="410" y="310" as="targetPoint" />
            <Array as="points">
              <mxPoint x="330" y="310" />
              <mxPoint x="330" y="311" />
            </Array>
          </mxGeometry>
        </mxCell>
        <mxCell id="hu_uZ-Jb9RQQ4rkObMAk-9" style="edgeStyle=orthogonalEdgeStyle;rounded=0;orthogonalLoop=1;jettySize=auto;html=1;entryX=0.023;entryY=0.652;entryDx=0;entryDy=0;entryPerimeter=0;" edge="1" parent="1" source="hu_uZ-Jb9RQQ4rkObMAk-1" target="hu_uZ-Jb9RQQ4rkObMAk-6">
          <mxGeometry relative="1" as="geometry">
            <mxPoint x="370" y="430" as="targetPoint" />
            <Array as="points">
              <mxPoint x="371" y="310" />
              <mxPoint x="371" y="426" />
            </Array>
          </mxGeometry>
        </mxCell>
        <mxCell id="hu_uZ-Jb9RQQ4rkObMAk-1" value="Usuário" style="shape=umlActor;verticalLabelPosition=bottom;verticalAlign=top;html=1;" vertex="1" parent="1">
          <mxGeometry x="120" y="280" width="30" height="60" as="geometry" />
        </mxCell>
        <mxCell id="hu_uZ-Jb9RQQ4rkObMAk-4" value="Envio de feedback" style="ellipse;whiteSpace=wrap;html=1;" vertex="1" parent="1">
          <mxGeometry x="414" y="280" width="140" height="70" as="geometry" />
        </mxCell>
        <mxCell id="hu_uZ-Jb9RQQ4rkObMAk-6" value="Preencheer Questionário" style="ellipse;whiteSpace=wrap;html=1;" vertex="1" parent="1">
          <mxGeometry x="414" y="380" width="140" height="70" as="geometry" />
        </mxCell>
        <mxCell id="hu_uZ-Jb9RQQ4rkObMAk-12" style="edgeStyle=orthogonalEdgeStyle;rounded=0;orthogonalLoop=1;jettySize=auto;html=1;" edge="1" parent="1" source="hu_uZ-Jb9RQQ4rkObMAk-10">
          <mxGeometry relative="1" as="geometry">
            <mxPoint x="410" y="520" as="targetPoint" />
          </mxGeometry>
        </mxCell>
        <mxCell id="hu_uZ-Jb9RQQ4rkObMAk-15" style="edgeStyle=orthogonalEdgeStyle;rounded=0;orthogonalLoop=1;jettySize=auto;html=1;exitX=0.5;exitY=0.5;exitDx=0;exitDy=0;exitPerimeter=0;entryX=0.043;entryY=0.714;entryDx=0;entryDy=0;entryPerimeter=0;" edge="1" parent="1" source="hu_uZ-Jb9RQQ4rkObMAk-10" target="hu_uZ-Jb9RQQ4rkObMAk-13">
          <mxGeometry relative="1" as="geometry">
            <mxPoint x="370" y="650" as="targetPoint" />
            <Array as="points">
              <mxPoint x="371" y="520" />
              <mxPoint x="371" y="640" />
            </Array>
          </mxGeometry>
        </mxCell>
        <mxCell id="hu_uZ-Jb9RQQ4rkObMAk-10" value="Admnistrador/Sistema" style="shape=umlActor;verticalLabelPosition=bottom;verticalAlign=top;html=1;" vertex="1" parent="1">
          <mxGeometry x="110" y="490" width="30" height="60" as="geometry" />
        </mxCell>
        <mxCell id="hu_uZ-Jb9RQQ4rkObMAk-11" value="Analisar feedback" style="ellipse;whiteSpace=wrap;html=1;" vertex="1" parent="1">
          <mxGeometry x="414" y="490" width="140" height="70" as="geometry" />
        </mxCell>
        <mxCell id="hu_uZ-Jb9RQQ4rkObMAk-13" value="Autorizar feedback" style="ellipse;whiteSpace=wrap;html=1;" vertex="1" parent="1">
          <mxGeometry x="414" y="590" width="140" height="70" as="geometry" />
        </mxCell>
        <mxCell id="hu_uZ-Jb9RQQ4rkObMAk-16" value="&lt;font style=&quot;font-size: 18px;&quot;&gt;DIAGRAMA CASOS DE USO -FEEDBACK DO USUÁRIO&lt;/font&gt;" style="text;html=1;align=center;verticalAlign=middle;resizable=0;points=[];autosize=1;strokeColor=none;fillColor=none;" vertex="1" parent="1">
          <mxGeometry x="169" y="100" width="490" height="40" as="geometry" />
        </mxCell>
      </root>
    </mxGraphModel>
  </diagram>
</mxfile>
